<svg width="100" height="100" version="1.1" xmlns="http://www.w3.org/2000/svg" xmlns:xlink="http://www.w3.org/1999/xlink" preserveAspectRatio="xMidYMid meet" viewBox="741 342 125 116"><g data-item-type="text" data-item="Business" id="logo__item--business" class="logo__item">
    <g class="logo__item__inner" transform="translate(778.171875 408.0839105454274) scale(0.5620881905727318 0.5620881905727318) rotate(0 0 0)">
        <text data-part-id="logo__item--business" dy="0" dominant-baseline="auto" alignment-baseline="auto" font-family="Montserrat" font-size="32px" fill="#4a4c4d" letter-spacing="0" font-weight="normal" font-style="normal" data-font-family="Montserrat" data-font-weight="normal" data-font-style="normal" data-ttf-url="/builder_assets/fontsttf/font-montserrat-bold-normal.ttf" data-font-filename="montserrat-normal-normal">TB6</text>
    </g>
</g><g data-item-type="image" data-item="Image" data-logo-item="" id="logo__item--logo_0" class="logo__item">
    <g class="logo__item__inner" transform="translate(733.4784567330826 332) scale(0.9070295621476812 0.9070295621476812) rotate(0 0 0)">

        <g>
            <g>
                <path fill="#4a4c4d" d="M50.6,26.7c3.5-3.2,6.3-4.8,8.6-4.8h0.3l0.3,0.1c2.5,1.3,3,2.9,3,4.1l-2.7,17.1l0,5.8    c0.1,0.1,1.8,1.8,15.1,4h0c6.8,0,14.5,4.9,22.6,14.7l0.2,0.3c5.2,9.9,7.8,18.5,7.8,25.8v6l-0.9,6.8l8.8,1c6.8,0,11.9-1.9,15.4-5.7    V21.1c0-1.7-1.4-3.1-3.1-3.1H38l-3.2-3.4l8.3,10.7L50.6,26.7z" data-part-id="logo__item--logo_0__0"></path>
                <path fill="#4a4c4d" d="M143.9,93.8c0-4.6-1.2-8.4-3.6-11.3c1.4,2.6,2.1,5.6,2.1,9c0,12.1-6.2,20.4-18.4,24.8l-11.3,1.7l-9.9-0.6    l-3.8,0.6l-2.6-0.5l-4.3,1.6l-11.1-2c-1.1,1.9-4.3,3.5-9.8,5c-1.3,2.5-4,5.1-9.8,5.1H61l-0.4-0.2c-6.9-4.3-7.2-5.2-7.2-6.2v-0.6    c0-2.2,1.5-4.3,4.4-6.3c0.6-2.6,3.8-4.1,6.6-5.1l1.4-8l-2.3-6.5l-2.8-0.6c-8.6,24.5-13.4,29.2-16.7,29.7l-0.6,0.6h-1.2    c-5.8-0.6-6.9-3.2-6.9-5.3c0-1.5,1.3-3.3,7.4-7.1c1.7-3.2,3.4-9.1,5.1-17.7c0-1.9-1.4-6.6-7.9-16.3l-0.2-0.3    c-3.8-10.7-5.8-19.2-6-25.3c-2-0.5-3.1-2.1-3.3-4.5l-2.2-2.2v-6.1c0-2.2,1.2-5.4,3.8-9.7L32.6,18H17.8c-1.7,0-3.1,1.4-3.1,3.1    v108.3c0,1.7,1.4,3.1,3.1,3.1h108.3c1.7,0,3.1-1.4,3.1-3.1V117C138.9,112.3,143.9,104.5,143.9,93.8z" data-part-id="logo__item--logo_0__1"></path>
            </g>
            <g>
                <path fill="#666351" d="M15.5,135.7c-2.1,0-3.9-1.7-3.9-3.8l0,0V18.7c0-2.1,1.8-3.8,3.9-3.8l0,0h14.8l-0.2,1.5H15.5    c-1.3,0-2.3,1-2.3,2.3l0,0v113.2c0,1.3,1,2.3,2.3,2.3l0,0l112.7,0c1.3,0,2.3-1.1,2.3-2.3l0,0l0-12.5l1.5-0.8v13.2    c0,2.1-1.7,3.8-3.8,3.8l0,0H15.5L15.5,135.7z" data-part-id="logo__item--logo_0__2"></path>
            </g>
            <g>
                <path fill="#666351" d="M130.5,97.1V18.7c0-1.3-1-2.3-2.3-2.3l0,0H41.3L40,14.9h88.2c2.1,0,3.8,1.7,3.8,3.8l0,0v76.6L130.5,97.1    L130.5,97.1z M41.3,16.4L41.3,16.4L41.3,16.4L41.3,16.4z" data-part-id="logo__item--logo_0__3"></path>
            </g>
        </g>

    </g>
</g></svg>